#!OML:ASF F:\VICON\USERDATA\INSTALL\rory3\rory3.ASF
:FULLY-SPECIFIED
:DEGREES
79
root -0.20824874330804194 21.81768198990627 -6.346769805999216 14.240024009573421 2.691893888206775 -1.2732427868921463
lfemur -34.07260771536771 6.449516719644074 -16.06002934819956
ltibia 65.6874050071311
lfoot 3.5951781999461687 -4.131474973614588
ltoes 1.5134966787686963
rfemur -27.309551687933002 -7.524985517125062 20.958578062343687
rtibia 52.626736617011005
rfoot 10.538233296564373 -5.885932703345183
rtoes 20.948462837915706
lowerback 11.011027946711714 0.16032520022650273 -1.4745043003832543
upperback 7.155440231827431 -0.01921527347528687 1.8173586453037023
thorax 4.3085800808817005 -0.06402487213493359 1.743622562771153
lowerneck -11.983274586687003 -0.2766654709552555 -1.7848144398319266
upperneck 17.467663890719727 -0.3286812251972784 1.039690751335806
head 6.297394193023132 -0.1713867893164428 0.6121430432698598
lclavicle 5.755899960280195e-16 -3.1150164492474877e-16
lhumerus -23.402042318765204 -2.067956357599334 83.85663149944166
lradius 19.757504218947336
lwrist 13.120528494252945
lhand -25.734536543579022 -9.599811785147834
lfingers 7.125019999999998
lthumb 0.9137598352047361 20.61517554636533
rclavicle 5.750426551348197e-16 -3.1248166071741984e-16
rhumerus -22.525169598816174 -9.28847317024945 -80.30794962767833
rradius 30.216350380679113
rwrist 22.865592660697267
rhand -21.109130673279076 -24.34098026557743
rfingers 7.125019999999998
rthumb 4.7805958864173315 -54.727879477256586
80
root -0.2604983516974825 22.07102984476837 -5.26946951448601 14.077333728337347 2.569623370437867 -1.7047065153732808
lfemur -40.012060453940286 6.653123412710699 -16.55205979167738
ltibia 65.13025953065477
lfoot 2.5160618611928545 -4.606851095025685
ltoes -0.6032456291898729
rfemur -34.229550218466684 -7.882868446791658 22.013818248959737
rtibia 53.27601152357928
rfoot 8.644564970476745 -4.930175930735417
rtoes 18.80683294692717
lowerback 10.689470938220882 0.23462943999417393 -1.3311554267006454
upperback 6.843757601234056 0.12390589978709754 1.7891619801088552
thorax 4.425367584090825 0.007673196632430462 1.5612770334315207
lowerneck -12.06323342862807 -0.317772447162988 -1.6984223805211986
upperneck 18.424215871786693 -0.41145524708803594 1.2475702759503435
head 6.97309030661784 -0.19662356259802838 0.6208970469203151
lclavicle 5.757599012313591e-16 -3.112293096181473e-16
lhumerus -25.231639968929553 -2.0381034709551145 83.55227496915191
lradius 19.168714815535672
lwrist 11.486921487884004
lhand -25.539048904032803 -9.539423935484308
lfingers 7.125019999999998
lthumb 1.229537121440588 20.712506602675155
rclavicle 5.753672914965314e-16 -3.119892923842333e-16
rhumerus -21.817216227430517 -8.407544054925575 -81.19107383775342
rradius 31.015769308053727
rwrist 23.196043277017036
rhand -21.12125636651282 -24.61347197186697
rfingers 7.125019999999998
rthumb 4.745397035097005 -55.04976396147467
81
root -0.30426372235951854 21.864730624543544 -4.202316374679418 14.0102102526017 2.605859879105275 -1.467069122783669
lfemur -43.84061696367368 6.729492055749009 -17.518909689121582
ltibia 61.57156826498172
lfoot 2.4614890208583233 -5.738465739957898
ltoes -3.361765695229918
rfemur -40.1525558862466 -8.000680574631112 22.315021571761488
rtibia 50.55312981038112
rfoot 7.122920124034197 -4.294539728629656
rtoes 16.180742678452955
lowerback 9.97114624567711 0.27768087507522454 -1.5524134742704248
upperback 6.363316486786559 0.21552407899380732 1.6382873962702509
thorax 4.503085592975863 0.049994221101927444 1.5278009385760125
lowerneck -12.150999331984194 -0.3671731999385288 -1.7018191185060778
upperneck 19.246237126819626 -0.538322724969136 1.578060493814981
head 7.516023207629505 -0.2400791855319656 0.6731062416329501
lclavicle 5.75940152614743e-16 -3.1097381254669687e-16
lhumerus -27.142866480091634 -1.7774294419902845 83.0176275994925
lradius 18.812554826541415
lwrist 10.281348398152375
lhand -25.278988447214907 -9.458693877654953
lfingers 7.125019999999998
lthumb 1.60028275320445 20.888244528212944
rclavicle 5.75493243321615e-16 -3.1179817320125617e-16
rhumerus -21.614609620588684 -7.6390092781266405 -82.11481699282352
rradius 31.877894053648724
rwrist 23.24447255569025
rhand -21.1824255038627 -24.99420888922367
rfingers 7.125019999999998
rthumb 4.670808000280057 -55.428759279216486
82
root -0.3407942596575813 21.196096790529396 -2.7726282225140593 12.719603941741783 3.190342947856328 -1.9179189198307582
lfemur -43.59883131247592 6.6719822913054605 -17.564492953191348
ltibia 55.13062287811283
lfoot 2.025162104927496 -6.070345530325803
ltoes -8.124191185360884
rfemur -40.65019070372954 -7.760575094276522 22.506931262871507
rtibia 44.26608846213362
rfoot 4.971610514518991 -3.6936283188738264
rtoes 12.066514938330274
lowerback 8.847877173299777 0.18134656591528583 -1.1746609389254359
upperback 5.78862345768955 0.14136236487571707 1.708511351284237
thorax 4.12723618520949 0.03663634901758547 1.4232869733251883
lowerneck -12.358839564878735 -0.4620692673299711 -1.8570792894352315
upperneck 20.202081556871626 -0.722498330647054 1.9219633907647355
head 8.04530342440488 -0.3202077053529192 0.7516910785207048
lclavicle 5.750601919305362e-16 -3.1232472352999355e-16
lhumerus -28.7634523945711 -1.2665063133041152 82.28978509184626
lradius 18.18720530483706
lwrist 8.448821998429219
lhand -24.87023833729663 -9.12220517566567
lfingers 7.125019999999998
lthumb 2.0772898327000986 21.29686888840614
rclavicle 5.753566985650799e-16 -3.120043662932337e-16
rhumerus -21.935963385273812 -7.157014698433514 -82.83295504605007
rradius 32.324890750773896
rwrist 23.20105783995508
rhand -21.171888949020182 -25.286076735165988
rfingers 7.125019999999998
rthumb 4.665647237645964 -55.697427077300645
83
root -0.36519811804445595 20.344063227499493 -1.1277078541066343 10.511414210612864 3.6136294100508604 -2.4101798171579514
lfemur -43.34564609487657 6.5587167667171435 -17.201508315717906
ltibia 48.29837894290199
lfoot 0.37289931175001634 -5.371763747616369
ltoes -14.758076003353874
rfemur -38.39601101050192 -6.752326994020443 22.078779128420823
rtibia 38.36392002936731
rfoot 1.5774675267897553 -3.4356459767183853
rtoes 7.8780255848509775
lowerback 7.678360539140586 0.15164889638616671 -0.817946291841898
upperback 5.250271324701904 0.11819934158861628 1.820949944649506
thorax 3.350785514511594 0.03697278337325624 1.4835186500302782
lowerneck -12.724671095058719 -0.5627651958487365 -2.0349878510416533
upperneck 21.081210279109424 -0.8520294152459877 2.0630873694817176
head 8.56637832755495 -0.3875968264099475 0.7790839280101143
lclavicle 5.748169878599191e-16 -3.126768722939182e-16
lhumerus -29.41021051241652 -0.2663426579679775 81.78721973534368
lradius 17.235537347351187
lwrist 5.567211457500191
lhand -24.45688390098191 -8.68470107286634
lfingers 7.125019999999998
lthumb 2.447234029607918 21.717714673992184
rclavicle 5.750669567408806e-16 -3.124438719157773e-16
rhumerus -22.215795491969445 -7.349944009577384 -83.15381097328219
rradius 32.34523512065445
rwrist 23.368119749319085
rhand -21.230241600162973 -25.79607637877789
rfingers 7.125019999999998
rthumb 4.610778046464887 -56.22676451524862
